<svg width="24" height="24" viewBox="0 0 24 24" fill="none" xmlns="http://www.w3.org/2000/svg">
<g id="Icons/Weather/ic-weather-drop">
<g id="ic weather drop">
<path id="Vector" d="M18.7295 10.62H18.9995H19.2695C20.9995 10.43 21.9995 8.20003 21.1595 6.46003L19.2695 2.57003C19.2482 2.51575 19.2111 2.46914 19.1629 2.43629C19.1148 2.40344 19.0578 2.38586 18.9995 2.38586C18.9412 2.38586 18.8843 2.40344 18.8361 2.43629C18.7879 2.46914 18.7508 2.51575 18.7295 2.57003L16.8395 6.46003C15.9995 8.20003 16.9995 10.43 18.7295 10.62Z" stroke="white" stroke-width="1.4" stroke-linecap="round" stroke-linejoin="round"/>
<path id="Vector_2" d="M4.72987 10.62H4.99987H5.26987C6.99987 10.43 7.99987 8.20004 7.15987 6.46003L5.26987 2.57003C5.2486 2.51575 5.21145 2.46914 5.16329 2.43629C5.11512 2.40344 5.05818 2.38586 4.99987 2.38586C4.94157 2.38586 4.88462 2.40344 4.83646 2.43629C4.78829 2.46914 4.75115 2.51575 4.72987 2.57003L2.83987 6.46003C1.99987 8.20004 2.99987 10.43 4.72987 10.62Z" stroke="white" stroke-width="1.4" stroke-linecap="round" stroke-linejoin="round"/>
<path id="Vector_3" d="M11.8791 21.59H12.2391H12.6091C15.0191 21.33 16.3291 18.29 15.1791 15.92L12.6191 10.64C12.587 10.5673 12.5344 10.5056 12.4679 10.4622C12.4013 10.4188 12.3236 10.3958 12.2441 10.3958C12.1647 10.3958 12.0869 10.4188 12.0203 10.4622C11.9538 10.5056 11.9012 10.5673 11.8691 10.64L9.30911 15.92C8.15911 18.29 9.46911 21.33 11.8791 21.59Z" stroke="white" stroke-width="1.4" stroke-linecap="round" stroke-linejoin="round"/>
</g>
</g>
</svg>
