<svg width="24" height="24" viewBox="0 0 24 24" fill="none" xmlns="http://www.w3.org/2000/svg">
<g id="Icons/Weather/ic-weather-cloudy">
<g id="ic weather cloudy">
<path id="Vector" d="M18.5686 18C19.439 18.0353 20.2881 17.725 20.9306 17.1368C21.5732 16.5485 21.9571 15.7301 21.9986 14.86C21.9657 14.1388 21.69 13.45 21.2161 12.9054C20.7423 12.3607 20.0983 11.9923 19.3886 11.86C19.0785 11.3108 18.6281 10.8538 18.0834 10.5358C17.5387 10.2179 16.9193 10.0503 16.2886 10.0503C15.6579 10.0503 15.0385 10.2179 14.4938 10.5358C13.9491 10.8538 13.4987 11.3108 13.1886 11.86C12.4779 11.992 11.8325 12.36 11.357 12.9045C10.8815 13.4489 10.6037 14.138 10.5686 14.86C10.6101 15.7301 10.994 16.5485 11.6366 17.1368C12.2791 17.725 13.1282 18.0353 13.9986 18C14.4396 17.9986 14.8766 17.9172 15.2886 17.76C15.5978 17.9196 15.9407 18.0029 16.2886 18.0029C16.6365 18.0029 16.9794 17.9196 17.2886 17.76C17.7006 17.9172 18.1376 17.9986 18.5786 18" stroke="white" stroke-width="1.4" stroke-linecap="round" stroke-linejoin="round"/>
<path id="Vector_2" fill-rule="evenodd" clip-rule="evenodd" d="M9.77906 3.63999C9.52248 3.16595 9.14051 2.77158 8.67491 2.49998C8.20931 2.22838 7.678 2.09001 7.13906 2.09999C6.6016 2.09073 6.07195 2.22951 5.60808 2.50113C5.1442 2.77275 4.764 3.16675 4.50906 3.63999C3.8983 3.75203 3.34454 4.07041 2.94042 4.54187C2.53631 5.01334 2.30637 5.60928 2.28906 6.22999C2.32282 6.96926 2.64787 7.6651 3.19316 8.16542C3.73845 8.66574 4.45963 8.92984 5.19906 8.89999C5.57488 8.90122 5.94773 8.83343 6.29906 8.69999C6.56116 8.82703 6.84784 8.89529 7.13906 8.89999C7.43705 8.89823 7.73088 8.82989 7.99906 8.69999C8.3504 8.83343 8.72325 8.90122 9.09906 8.89999C9.83681 8.92713 10.5554 8.66182 11.0985 8.16178C11.6416 7.66175 11.9653 6.96746 11.9991 6.22999C11.9799 5.60982 11.7493 5.01483 11.3455 4.54373C10.9417 4.07264 10.389 3.75375 9.77906 3.63999V3.63999Z" stroke="white" stroke-width="1.4" stroke-linecap="round" stroke-linejoin="round"/>
<path id="Vector_3" d="M18.7401 18C16.934 19.7877 14.5372 20.8545 12.0001 21C9.61317 21 7.32399 20.0518 5.63616 18.364C3.94833 16.6761 3.00012 14.3869 3.00012 12C3.00452 10.8005 3.22469 9.61154 3.65012 8.48999" stroke="white" stroke-width="1.4" stroke-linecap="round" stroke-linejoin="round"/>
<path id="Vector_4" d="M9.59949 3.34C10.3848 3.14018 11.1895 3.02617 11.9995 3C14.3864 3 16.6756 3.94821 18.3634 5.63604C20.0513 7.32387 20.9995 9.61305 20.9995 12C20.9995 12.17 20.9995 12.48 20.9995 12.64" stroke="white" stroke-width="1.4" stroke-linecap="round" stroke-linejoin="round"/>
</g>
</g>
</svg>
