<svg width="24" height="24" viewBox="0 0 24 24" fill="none" xmlns="http://www.w3.org/2000/svg">
<g id="Icons/Weather/ic-weather-cloud">
<g id="ic weather cloud">
<path id="Vector" fill-rule="evenodd" clip-rule="evenodd" d="M17.4302 8.16001C16.8995 7.18808 16.113 6.37986 15.1559 5.82286C14.1987 5.26586 13.1075 4.9813 12.0002 5.00001C10.893 4.9813 9.80174 5.26586 8.84462 5.82286C7.88749 6.37986 7.10098 7.18808 6.57024 8.16001C5.31494 8.39806 4.17822 9.05673 3.34747 10.0275C2.51672 10.9982 2.04153 12.223 2.00024 13.5C2.07034 15.0237 2.74087 16.4576 3.86522 17.4882C4.98957 18.5189 6.47626 19.0624 8.00024 19C8.77198 18.999 9.53734 18.8602 10.2602 18.59C10.8007 18.8594 11.3963 18.9997 12.0002 18.9997C12.6041 18.9997 13.1998 18.8594 13.7402 18.59C14.4632 18.8602 15.2285 18.999 16.0002 19C17.5242 19.0624 19.0109 18.5189 20.1353 17.4882C21.2596 16.4576 21.9301 15.0237 22.0002 13.5C21.959 12.223 21.4838 10.9982 20.653 10.0275C19.8223 9.05673 18.6855 8.39806 17.4302 8.16001V8.16001Z" stroke="white" stroke-width="1.4" stroke-linecap="round" stroke-linejoin="round"/>
</g>
</g>
</svg>
