<svg width="24" height="24" viewBox="0 0 24 24" fill="none" xmlns="http://www.w3.org/2000/svg">
<g id="Icons/Weather/ic-weather-wind-storm-rain">
<g id="ic weather wind storm rain">
<path id="Vector" d="M19.5 12L16.5 17H19.5L17 22" stroke="white" stroke-width="1.4" stroke-linecap="round" stroke-linejoin="round"/>
<path id="Vector_2" d="M21.6802 13.28C21.8929 12.7107 22.0013 12.1077 22.0002 11.5C21.959 10.223 21.4838 8.99818 20.653 8.02746C19.8223 7.05673 18.6855 6.39806 17.4302 6.16001C16.8995 5.18808 16.113 4.37986 15.1559 3.82286C14.1987 3.26586 13.1075 2.9813 12.0002 3.00001C10.893 2.9813 9.80174 3.26586 8.84462 3.82286C7.88749 4.37986 7.10098 5.18808 6.57024 6.16001C5.31494 6.39806 4.17822 7.05673 3.34747 8.02746C2.51672 8.99818 2.04153 10.223 2.00024 11.5C2.07034 13.0237 2.74087 14.4576 3.86522 15.4882C4.98957 16.5189 6.47626 17.0624 8.00024 17C8.77198 16.999 9.53734 16.8602 10.2602 16.59C10.8007 16.8594 11.3963 16.9997 12.0002 16.9997C12.6041 16.9997 13.1998 16.8594 13.7402 16.59" stroke="white" stroke-width="1.4" stroke-linecap="round" stroke-linejoin="round"/>
<path id="Vector_3" d="M12.0002 20L11.0002 22" stroke="white" stroke-width="1.4" stroke-linecap="round" stroke-linejoin="round"/>
<path id="Vector_4" d="M7.99976 20L6.99976 22" stroke="white" stroke-width="1.4" stroke-linecap="round" stroke-linejoin="round"/>
<path id="Vector_5" d="M4 20L3 22" stroke="white" stroke-width="1.4" stroke-linecap="round" stroke-linejoin="round"/>
</g>
</g>
</svg>
