<svg width="24" height="24" viewBox="0 0 24 24" fill="none" xmlns="http://www.w3.org/2000/svg">
<g id="Icons/Weather/ic-weather-wind">
<g id="ic weather wind">
<path id="Vector" d="M12.9995 8C14.1041 8 14.9995 7.10457 14.9995 6C14.9995 4.89543 14.1041 4 12.9995 4C11.8949 4 10.9995 4.89543 10.9995 6C10.9995 7.10457 11.8949 8 12.9995 8Z" stroke="white" stroke-width="1.4" stroke-linecap="round" stroke-linejoin="round"/>
<path id="Vector_2" d="M19.9993 12C21.1038 12 21.9993 11.1046 21.9993 10C21.9993 8.89543 21.1038 8 19.9993 8C18.8947 8 17.9993 8.89543 17.9993 10C17.9993 11.1046 18.8947 12 19.9993 12Z" stroke="white" stroke-width="1.4" stroke-linecap="round" stroke-linejoin="round"/>
<path id="Vector_3" d="M15.9995 20C17.1041 20 17.9995 19.1046 17.9995 18C17.9995 16.8954 17.1041 16 15.9995 16C14.8949 16 13.9995 16.8954 13.9995 18C13.9995 19.1046 14.8949 20 15.9995 20Z" stroke="white" stroke-width="1.4" stroke-linecap="round" stroke-linejoin="round"/>
<path id="Vector_4" d="M15.9995 16H4.99951" stroke="white" stroke-width="1.4" stroke-linecap="round" stroke-linejoin="round"/>
<path id="Vector_5" d="M19.9995 12H1.99951" stroke="white" stroke-width="1.4" stroke-linecap="round" stroke-linejoin="round"/>
<path id="Vector_6" d="M12.9993 8H2.99927" stroke="white" stroke-width="1.4" stroke-linecap="round" stroke-linejoin="round"/>
</g>
</g>
</svg>
