<svg width="24" height="24" viewBox="0 0 24 24" fill="none" xmlns="http://www.w3.org/2000/svg">
<g id="Icons/Weather/ic-weather-temperature">
<g id="ic weather temperature">
<path id="Vector" fill-rule="evenodd" clip-rule="evenodd" d="M14.9998 13V5C14.9998 4.20435 14.6837 3.44129 14.1211 2.87868C13.5585 2.31607 12.7954 2 11.9998 2C11.2041 2 10.441 2.31607 9.87843 2.87868C9.31583 3.44129 8.99976 4.20435 8.99976 5V13C8.16023 13.6296 7.54009 14.5075 7.22719 15.5092C6.91429 16.5108 6.92449 17.5856 7.25634 18.5811C7.58819 19.5767 8.22488 20.4426 9.0762 21.0562C9.92753 21.6698 10.9503 22 11.9998 22C13.0492 22 14.072 21.6698 14.9233 21.0562C15.7746 20.4426 16.4113 19.5767 16.7432 18.5811C17.075 17.5856 17.0852 16.5108 16.7723 15.5092C16.4594 14.5075 15.8393 13.6296 14.9998 13V13Z" stroke="white" stroke-width="1.4" stroke-linecap="round" stroke-linejoin="round"/>
<path id="Vector_2" d="M11.9998 19C13.1043 19 13.9998 18.1046 13.9998 17C13.9998 15.8954 13.1043 15 11.9998 15C10.8952 15 9.99976 15.8954 9.99976 17C9.99976 18.1046 10.8952 19 11.9998 19Z" stroke="white" stroke-width="1.4" stroke-linecap="round" stroke-linejoin="round"/>
<path id="Vector_3" d="M12 9V15" stroke="white" stroke-width="1.4" stroke-linecap="round" stroke-linejoin="round"/>
</g>
</g>
</svg>
