<svg width="24" height="24" viewBox="0 0 24 24" fill="none" xmlns="http://www.w3.org/2000/svg">
<g id="Icons/Weather/ic-weather-umbrella">
<g id="ic weather umbrella">
<path id="Vector" d="M11.8002 2H12.2002C14.7994 2 17.292 3.0325 19.1299 4.87035C20.9677 6.70821 22.0002 9.20088 22.0002 11.8V11.8C22.0002 11.853 21.9792 11.9039 21.9417 11.9414C21.9042 11.9789 21.8533 12 21.8002 12H2.20024C2.1472 12 2.09633 11.9789 2.05882 11.9414C2.02132 11.9039 2.00024 11.853 2.00024 11.8C2.00024 9.20088 3.03274 6.70821 4.8706 4.87035C6.70845 3.0325 9.20112 2 11.8002 2V2Z" stroke="white" stroke-width="1.4" stroke-linecap="round" stroke-linejoin="round"/>
<path id="Vector_2" d="M12.0002 12V20C12.0002 20.5304 11.7895 21.0391 11.4145 21.4142C11.0394 21.7893 10.5307 22 10.0002 22C9.46981 22 8.9611 21.7893 8.58603 21.4142C8.21096 21.0391 8.00024 20.5304 8.00024 20V19" stroke="white" stroke-width="1.4" stroke-linecap="round" stroke-linejoin="round"/>
</g>
</g>
</svg>
